# xmcd
#
# Track frame offsets: 
#        150
#        11718
#        22486
#        34430
#        48163
#        59101
#        71905
#        83103
#        95994
#        107904
#        121133
#        125510
#        137739
#        150277
#        160290
#        173391
#        185133
#        196538
#        208062
#        218296
#        228748
#        241167
#        251554
#        264326
#        275466
#        288545
#        299009
#        309182
#
# Disc length: 4266 seconds
#
# Revision: 1
# Processed by: cddbd v1.5.2PL0 Copyright (c) Steve Scherf et al.
# Submitted via: ExactAudioCopy v1.3
#
DISCID=a510a81c
DTITLE=Lester Flatt - Flatt and Mac Wiseman - Flatt on Victor Plus More_C
DTITLE=D4
DYEAR=1999
DGENRE=Bluegrass
TTITLE0=Lester Flatt, 1999 - Don't Take It So Hard Mr. Webster
TTITLE1=Lester Flatt, 1971 - Up a Creek Without a Paddle
TTITLE2=Lester Flatt, 1971 - She Didn't Say Goodbye
TTITLE3=Lester Flatt, 1971 - Jesus Gold
TTITLE4=Lester Flatt, 1971 - Is Anybody Goin' North to Cincinnati?
TTITLE5=Lester Flatt, 1971 - Cuttin' the Grass
TTITLE6=Lester Flatt, 1971 - Good Ole You Know Who
TTITLE7=Lester Flatt, 1971 - I Got It on My Mind, Today
TTITLE8=Lester Flatt, 1971 - Kentucky Ridgerunner
TTITLE9=Lester Flatt, 1971 - Roll in My Sweet Baby's Arms
TTITLE10=Lester Flatt, 1971 - The Martha White Theme
TTITLE11=Lester Flatt, 1971 - You're Still Mine Tonight
TTITLE12=Lesrer Flatt and Mac Wiseman, 1999 - I'll Stay Around
TTITLE13=Lesrer Flatt and Mac Wiseman, 1971 - Salty Dog Blues
TTITLE14=Lesrer Flatt and Mac Wiseman, 1971 - Just a Strand from a Yello
TTITLE14=w Curl
TTITLE15=Lesrer Flatt and Mac Wiseman, 1971 - Mama's and Daddy's Little 
TTITLE15=Girl
TTITLE16=Lesrer Flatt and Mac Wiseman, 1973 - Blue Ridge Cabin Home
TTITLE17=Lesrer Flatt and Mac Wiseman, 1971 - Me and Your Cabin
TTITLE18=Lesrer Flatt and Mac Wiseman, 1973 - Waiting for the Boys to Co
TTITLE18=me Home
TTITLE19=Lesrer Flatt and Mac Wiseman, 1971 - On the South Bend
TTITLE20=Lesrer Flatt and Mac Wiseman, 1971 - I'm Waiting to Hear You Ca
TTITLE20=ll Me Darling
TTITLE21=Lesrer Flatt and Mac Wiseman, 1971 - Are You Coming Back to Me
TTITLE22=Lesrer Flatt and Mac Wiseman, 1971 - When You Are Lonely
TTITLE23=Lesrer Flatt and Mac Wiseman, 1971 - You Can't Trust a Friend A
TTITLE23=nymore
TTITLE24=Lester Flatt, 1972 - February Snow
TTITLE25=Lester Flatt, 1972 - It's Sad to Be Alone
TTITLE26=Lester Flatt, 1972 - Love Is the Key
TTITLE27=Lester Flatt, 1972 - Foggy Mountain Breakdown
EXTD=
EXTT0=
EXTT1=
EXTT2=
EXTT3=
EXTT4=
EXTT5=
EXTT6=
EXTT7=
EXTT8=
EXTT9=
EXTT10=
EXTT11=
EXTT12=
EXTT13=
EXTT14=
EXTT15=
EXTT16=
EXTT17=
EXTT18=
EXTT19=
EXTT20=
EXTT21=
EXTT22=
EXTT23=
EXTT24=
EXTT25=
EXTT26=
EXTT27=
PLAYORDER=
